<svg xmlns="http://www.w3.org/2000/svg" viewBox="0 0 191.55 383.05">
    <g id="Camada_2" data-name="Camada 2">
        <g id="Camada_1-2" data-name="Camada 1">
            <path fill="#FFFDF0" d="M159.45,0c6.59.5,13.18,1,19.76,1.51,4.09.34,8.16.75,12.34,1.14v61c-1.68,0-3.25,0-4.83,0-13,.21-26-.16-38.94.8-13.92,1-22.12,8.22-23,22.12-1.18,18.85-.29,37.82-.29,57.15h61.38c-2.86,22.91-5.66,45.36-8.5,68.1H124V383.05H55.53v-171H0V143.86H55.41c0-1.79,0-3.22,0-4.65C55.58,119.14,55,99,56.12,79c1.26-23.56,9.37-44.56,27.95-60.36C96.55,8,111.33,2.81,127.38.75,128.59.6,129.76.25,131,0Z"/>
        </g>
    </g>
</svg>