<svg xmlns="http://www.w3.org/2000/svg" viewBox="0 0 382.46 383.05">
    <g id="Camada_2" data-name="Camada 2">
        <g id="Camada_1-2" data-name="Camada 1">
            <path fill="#FFFDF0" d="M133.83,0H248.35L255,.61c14.38,1.3,29,1.32,43.1,4.15,37.26,7.49,63.22,29.13,76.32,65.27,6.34,17.48,7.81,35.75,7.87,54.13.13,43.91.33,87.83-.13,131.73a230.94,230.94,0,0,1-3.77,41.62c-7.16,36.69-28.14,62.65-63.34,76.35-17,6.62-34.86,8.38-52.87,8.56-40.41.4-80.83.78-121.24.56C121,382.87,101,382.8,81.44,378c-31.72-7.69-55.28-25.67-69.29-55.37C3.53,304.39.89,284.73.68,264.78.24,223.37-.22,182,.11,140.55A377.31,377.31,0,0,1,3.85,88.39c4-26.81,16.87-49.07,38.81-65.52C61.45,8.76,83.22,3.15,106.23,1.53,115.42.88,124.63.5,133.83,0Zm57.71,349.38v-.59c10.11,0,20.22.3,30.31-.06,21.67-.78,43.49-.58,64.95-3.2,28.31-3.46,47.7-19.48,56.27-47.32,3.93-12.77,4.6-26,4.75-39.23.39-33.93.88-67.86.58-101.78-.18-20.18-.69-40.46-3-60.47C341.88,65.94,322.36,45.07,292,39c-13.23-2.64-27-3.42-40.5-3.64-33.42-.57-66.86-.46-100.29-.35-19.19.07-38.44-.18-57.45,3.16-29.07,5.1-49,23.53-54.94,52.45-2.56,12.48-3.41,25.46-3.68,38.24-.65,30.8-.9,61.62-.56,92.43.24,21.55.87,43.16,2.88,64.6,1.86,19.91,11,36.66,27.9,48.3,13.06,9,28,12.42,43.48,13C136.42,348.29,164,348.7,191.54,349.38Z"/>
            <path fill="#FFFDF0" d="M93,191.76c-.18-54.2,44.1-98.5,98.46-98.51a98.34,98.34,0,0,1,98.42,98.12c.37,54.17-43.79,98.56-98.22,98.75C137.39,290.31,93.14,246.19,93,191.76Zm98.27,63.68a63.79,63.79,0,1,0-63.58-63.9A63.6,63.6,0,0,0,191.22,255.44Z"/>
            <path fill="#FFFDF0" d="M294.28,66.43a22.93,22.93,0,0,1-1,45.84,22.93,22.93,0,1,1,1-45.84Z"/>
        </g>
    </g>
</svg>