<svg xmlns="http://www.w3.org/2000/svg" viewBox="0 0 968.5 101.08">
    <defs>
        <style>.cls-1{fill:#00366b;}</style>
    </defs>
    <g id="Camada_2" data-name="Camada 2">
        <g id="Camada_1-2" data-name="Camada 1">
            <path class="cls-1" d="M35.3,24a38.42,38.42,0,0,0-4.83.31A32.33,32.33,0,1,1,0,75.5,37.85,37.85,0,1,0,35.3,24Z" transform="translate(0 0)"/>
            <circle class="cls-1" cx="110.98" cy="61.83" r="37.84"/>
            <path class="cls-1" d="M195.94,88.65a32.33,32.33,0,0,1-4.45-64.35,38.38,38.38,0,0,0-4.82-.31A37.85,37.85,0,1,0,222,75.5,32.29,32.29,0,0,1,195.94,88.65Z" transform="translate(0 0)"/>
            <path class="cls-1" d="M261,22.56h42.19V27.2H266.35V56.41h30.92V61H266.35v34h38v4.63H261Z" transform="translate(0 0)"/>
            <path class="cls-1" d="M315.29,89.46l3.46-3.69a30.22,30.22,0,0,0,22.63,10.42c11.78,0,19.2-6.3,19.2-15.49,0-9.63-6.29-12.7-13.88-16.12L335,59.34c-6.72-3-15.65-7.76-15.65-19.18,0-11.2,9.6-19,22.42-19a29.51,29.51,0,0,1,21.49,9.23L360.15,34a24.58,24.58,0,0,0-18.37-7.92c-10.18,0-17,5.44-17,13.78,0,9,7.7,12.4,13.34,14.88l11.66,5.21c8.64,3.85,16.24,8.61,16.24,20.4s-9.72,20.76-24.67,20.76A33.88,33.88,0,0,1,315.29,89.46Z" transform="translate(0 0)"/>
            <path class="cls-1" d="M396.48,27.2H371.93V22.56h54.48V27.2H401.86V99.68h-5.38Z" transform="translate(0 0)"/>
            <path class="cls-1" d="M440.92,70.1V22.56h5.39V69.49c0,20.52,9.62,26.7,20.52,26.7,11.12,0,21-6.18,21-26.7V22.56h5.1V70.1c0,24.08-12.77,31-26.07,31S440.92,94.18,440.92,70.1Zm21.22-55.77L476.7,0l3.37,3.82L464.5,17Z" transform="translate(0 0)"/>
            <path class="cls-1" d="M515.37,22.56h17.84c23.8,0,35.08,15,35.08,38.32s-11.28,38.8-35,38.8h-18Zm17.3,72.56c20.9,0,30-14.14,30-34.24s-9.08-33.75-30-33.75H520.76v68Z" transform="translate(0 0)"/>
            <path class="cls-1" d="M586.05,22.56h5.39V99.68h-5.39Z" transform="translate(0 0)"/>
            <path class="cls-1" d="M609.18,60.88c0-24.41,13.22-39.72,31.75-39.72s31.76,15.32,31.76,39.72-13.22,40.2-31.76,40.2S609.18,85.29,609.18,60.88Zm57.87,0c0-21.4-10.46-34.83-26.12-34.83s-26.11,13.43-26.11,34.83,10.46,35.31,26.11,35.31S667.05,82.27,667.05,60.88Z" transform="translate(0 0)"/>
            <path class="cls-1" d="M713.84,22.56h17.83c23.81,0,35.09,15,35.09,38.32s-11.28,38.8-35,38.8H713.84Zm17.3,72.56c20.9,0,30-14.14,30-34.24s-9.08-33.75-30-33.75H719.22v68Z" transform="translate(0 0)"/>
            <path class="cls-1" d="M800.08,22.56h5.39l27.17,77.12h-5.71l-15.4-45.4C808.39,45.12,805.68,37,803,27.64h-.47c-2.69,9.41-5.4,17.48-8.54,26.64l-15.61,45.4h-5.43ZM785.32,68.7h34.57v4.51H785.32Z" transform="translate(0 0)"/>
            <path class="cls-1" d="M844.79,22.56h5.64l32.44,54.37,8.73,15.4h.46c-.3-7.56-.68-15-.68-22.49V22.56h5.08V99.68h-5.64L858.38,45.3l-8.73-15.39h-.46c.3,7.4.67,14.39.67,21.86V99.68h-5.07Z" transform="translate(0 0)"/>
            <path class="cls-1" d="M936,22.56h5.38L968.5,99.68h-5.71l-15.4-45.4c-3.14-9.16-5.85-17.24-8.57-26.64h-.46c-2.69,9.41-5.41,17.48-8.55,26.64L914.2,99.68h-5.43ZM921.18,68.7h34.58v4.51H921.18Z" transform="translate(0 0)"/>
        </g>
    </g>
</svg>