<svg xmlns="http://www.w3.org/2000/svg" viewBox="0 0 311.63 382.94">
    <g id="Camada_2" data-name="Camada 2">
        <g id="Camada_1-2" data-name="Camada 1">
            <path fill="#FFFDF0" d="M172.46,0c7.14,1,14.33,1.69,21.4,3.05,36.67,7,67.86,23.67,91.11,53.45,20.38,26.12,28.55,56,26.3,89-2,28.95-10,56-26.79,79.78-25.58,36.2-60.37,55-105.22,53.11a66.9,66.9,0,0,1-39.93-15c-3.63-2.94-6.65-6.65-10.18-10.24-2,7.17-3.91,14.54-6.06,21.84-4.68,15.87-8.59,32-14.45,47.48-8,21.06-20.37,39.9-33.18,58.36A5.51,5.51,0,0,1,72,382.94c-.6.07-1.91-1.83-2.09-3-4.14-25.81-7.27-51.79-2.78-77.77,2.8-16.17,7.49-32,11.41-48,5.8-23.59,11.71-47.14,17.43-70.75a10.4,10.4,0,0,0-.51-5.64c-7.57-20.83-9.15-41.73.68-62.16,7.61-15.81,20.12-25.7,38.38-26,16.83-.27,28.87,11.9,29.73,29.16.53,10.65-2,20.81-5,30.85q-6.94,23.09-14.14,46.07c-8.58,27.28,12,46.49,36.4,45.83,21-.56,37.38-10.34,50.38-26.26S252,181,255.21,161c3.61-22.51,1.86-44.58-7.4-65.6-13.23-30-36.93-47-68.8-52.59-25.2-4.44-50.16-3-73.6,8-38.53,18-59,48.78-60.51,91.32a74.31,74.31,0,0,0,17.36,51.3c2,2.46,3.22,5,2.4,8.21-2.06,8.09-3.94,16.22-6.19,24.26-1.79,6.38-3.74,7.12-9.75,4.24-14.4-6.88-24.67-18.13-32.28-31.77-23.16-41.53-21-83.3,1-124.22,18.8-35,49.39-55.6,87-66.6A185.33,185.33,0,0,1,144.87.64,32.64,32.64,0,0,0,148.51,0Z"/>
        </g>
    </g>
</svg>