<?xml version="1.0" encoding="utf-8"?>
<!-- Generator: Adobe Illustrator 26.0.0, SVG Export Plug-In . SVG Version: 6.00 Build 0)  -->
<svg version="1.1" id="Camada_1" xmlns="http://www.w3.org/2000/svg" xmlns:xlink="http://www.w3.org/1999/xlink" x="0px" y="0px"
	 viewBox="0 0 382.5 383" style="enable-background:new 0 0 382.5 383;" xml:space="preserve">
<style type="text/css">
	.st0{fill:#FFFDF0;}
</style>
<g>
	<path class="st0" d="M12,306.6c39.7,2.7,75.4-6.8,107.8-31.3c-34-3.1-56.4-20.3-69.1-51.9c11.2,0,21.6,0,32,0
		c0.1-0.4,0.1-0.8,0.2-1.2c-35.8-11.2-55.1-35.4-58-73.8c10.9,5.2,21.1,8.8,33.2,8.9c-18.8-15.1-30.4-33.4-32.3-56.8
		C24.7,85.8,28.6,72.1,36,58.7c40.2,46.8,90.2,73.2,151,77.1c0-8.3-0.5-15.9,0.1-23.4c3-38.4,36-68,74.6-67.4
		c19.7,0.3,36.7,7.4,50.9,21.1c1.8,1.7,3.3,2.2,5.8,1.6c13.8-3.4,27-8.2,39.4-15c1-0.5,2-0.9,4-1.8c-5.8,17.4-16.1,30-30.5,39.6
		c0.2,0.5,0.5,1,0.7,1.5c12.9-3.6,25.7-7.1,39-10.8c-1,1.5-2,3.1-3.2,4.7c-8.4,11.7-18.4,21.8-29.9,30.5c-2.5,1.9-3.3,3.8-3.2,6.9
		c2.6,82.7-46.5,164.3-121.1,197.1c-67.2,29.5-133.6,25.5-197.7-11.1C14.5,308.4,13.3,307.5,12,306.6z"/>
</g>
</svg>
